<svg width="16" height="16" viewBox="0 0 16 16" fill="none" xmlns="http://www.w3.org/2000/svg">
<path d="M12.9998 4.66667H6.33317C5.4127 4.66667 4.6665 5.41286 4.6665 6.33334V13C4.6665 13.9205 5.4127 14.6667 6.33317 14.6667H12.9998C13.9203 14.6667 14.6665 13.9205 14.6665 13V6.33334C14.6665 5.41286 13.9203 4.66667 12.9998 4.66667Z" stroke="#ACA2B5" stroke-width="2" stroke-linecap="round" stroke-linejoin="round"/>
<path d="M11.3333 4.66666V2.99999C11.3333 2.55797 11.1577 2.13404 10.8451 1.82148C10.5325 1.50892 10.1086 1.33333 9.66659 1.33333H2.99992C2.55789 1.33333 2.13397 1.50892 1.82141 1.82148C1.50885 2.13404 1.33325 2.55797 1.33325 2.99999V9.66666C1.33325 10.1087 1.50885 10.5326 1.82141 10.8452C2.13397 11.1577 2.55789 11.3333 2.99992 11.3333H4.66659" stroke="#ACA2B5" stroke-width="2" stroke-linecap="round" stroke-linejoin="round"/>
</svg>
