<svg width="20" height="20" viewBox="0 0 20 20" fill="none" xmlns="http://www.w3.org/2000/svg">
<path d="M14.9998 6.66667H8.33317C7.4127 6.66667 6.6665 7.41286 6.6665 8.33334V15C6.6665 15.9205 7.4127 16.6667 8.33317 16.6667H14.9998C15.9203 16.6667 16.6665 15.9205 16.6665 15V8.33334C16.6665 7.41286 15.9203 6.66667 14.9998 6.66667Z" stroke="#120023" stroke-width="2" stroke-linecap="round" stroke-linejoin="round"/>
<path d="M13.3333 6.66667V5C13.3333 4.55797 13.1577 4.13405 12.8451 3.82149C12.5325 3.50893 12.1086 3.33333 11.6666 3.33333H4.99992C4.55789 3.33333 4.13397 3.50893 3.82141 3.82149C3.50885 4.13405 3.33325 4.55797 3.33325 5V11.6667C3.33325 12.1087 3.50885 12.5326 3.82141 12.8452C4.13397 13.1577 4.55789 13.3333 4.99992 13.3333H6.66659" stroke="#120023" stroke-width="2" stroke-linecap="round" stroke-linejoin="round"/>
</svg>
