<svg width="16" height="18" viewBox="0 0 16 18" fill="none" xmlns="http://www.w3.org/2000/svg">
<path d="M5.50016 4.83333V2.33333C5.50016 2.11232 5.58796 1.90036 5.74424 1.74408C5.90052 1.5878 6.11248 1.5 6.3335 1.5H9.66683C9.88784 1.5 10.0998 1.5878 10.2561 1.74408C10.4124 1.90036 10.5002 2.11232 10.5002 2.33333V4.83333M1.3335 4.83333H14.6668H1.3335ZM6.3335 8.16667V13.1667V8.16667ZM9.66683 8.16667V13.1667V8.16667ZM2.16683 4.83333L3.00016 14.8333C3.00016 15.2754 3.17576 15.6993 3.48832 16.0118C3.80088 16.3244 4.2248 16.5 4.66683 16.5H11.3335C11.7755 16.5 12.1994 16.3244 12.512 16.0118C12.8246 15.6993 13.0002 15.2754 13.0002 14.8333L13.8335 4.83333H2.16683Z" stroke="#120023" stroke-width="2" stroke-linecap="round" stroke-linejoin="round"/>
</svg>
