<svg width="19" height="18" viewBox="0 0 19 18" fill="none" xmlns="http://www.w3.org/2000/svg">
<path fill-rule="evenodd" clip-rule="evenodd" d="M14.1865 0H5.18307C2.70734 0 0.681335 2.02432 0.681335 4.5V13.5C0.681335 15.9748 2.70734 18 5.18307 18H14.1865C16.6623 18 18.6883 15.9748 18.6883 13.5V4.5C18.6883 2.02432 16.6623 0 14.1865 0ZM9.68484 12.7499C7.61269 12.7499 5.93332 11.0705 5.93332 9.00001C5.93332 6.92866 7.61269 5.24994 9.68484 5.24994C11.7561 5.24994 13.4364 6.92866 13.4364 9.00001C13.4364 11.0705 11.7561 12.7499 9.68484 12.7499ZM13.4363 4.12494C13.4363 4.74616 13.9394 5.24994 14.5613 5.24994C15.1832 5.24994 15.6863 4.74616 15.6863 4.12494C15.6863 3.50371 15.1832 2.99994 14.5613 2.99994C13.9394 2.99994 13.4363 3.50371 13.4363 4.12494Z" fill="#120023"/>
</svg>
