<svg width="21" height="16" viewBox="0 0 21 16" fill="none" xmlns="http://www.w3.org/2000/svg">
<path d="M18.3382 3.99704C18.3512 4.17204 18.3512 4.34604 18.3512 4.52004C18.3512 9.84504 14.2966 15.981 6.88675 15.981C4.60387 15.981 2.48305 15.32 0.698364 14.172C1.02249 14.209 1.33461 14.222 1.67174 14.222C3.55547 14.222 5.28914 13.586 6.67467 12.501C4.90299 12.464 3.41841 11.304 2.90622 9.70804C3.15531 9.74504 3.40541 9.77004 3.66751 9.77004C4.02865 9.77004 4.39179 9.72004 4.72892 9.63304C2.88121 9.25904 1.49767 7.63804 1.49767 5.68004V5.63004C2.03488 5.92904 2.65812 6.11604 3.31838 6.14104C2.23296 5.41904 1.52168 4.18404 1.52168 2.78704C1.52168 2.03904 1.72076 1.35304 2.06989 0.755043C4.05366 3.19804 7.03581 4.79504 10.3791 4.97004C10.3171 4.67004 10.2791 4.35904 10.2791 4.04704C10.2791 1.82704 12.0758 0.019043 14.3086 0.019043C15.4691 0.019043 16.5165 0.505043 17.2528 1.29104C18.1631 1.11604 19.0354 0.779043 19.8097 0.318043C19.5106 1.25304 18.8734 2.03904 18.0381 2.53804C18.8494 2.45004 19.6357 2.22604 20.358 1.91404C19.8097 2.71204 19.1245 3.42304 18.3382 3.99704Z" fill="#120023"/>
</svg>
